<svg width="19" height="19" viewBox="0 0 19 19" fill="none" xmlns="http://www.w3.org/2000/svg">
<path fill-rule="evenodd" clip-rule="evenodd" d="M17.7699 7.99854H9.29395V11.4795H14.1379C14.0377 12.0301 13.8269 12.5547 13.5182 13.0215C13.2095 13.4883 12.8093 13.8877 12.3419 14.1955V16.4545H15.2499C16.9519 14.8875 17.9339 12.5795 17.9339 9.83954C17.9339 9.20054 17.8769 8.58754 17.7699 7.99854Z" fill="#4285F4"/>
<path fill-rule="evenodd" clip-rule="evenodd" d="M15.25 16.4545L12.342 14.1955C11.536 14.7355 10.505 15.0555 9.29398 15.0555C6.94998 15.0555 4.96598 13.4715 4.25798 11.3445H1.25098V13.6765C2.00002 15.1674 3.14892 16.4207 4.56926 17.2963C5.98961 18.1718 7.62545 18.6351 9.29398 18.6345C11.724 18.6345 13.761 17.8285 15.25 16.4545Z" fill="#34A853"/>
<path fill-rule="evenodd" clip-rule="evenodd" d="M3.97595 9.63453C3.97595 9.04153 4.07795 8.46453 4.25795 7.92453V5.59253H1.25095C0.621001 6.84676 0.293266 8.23099 0.293946 9.63453C0.293946 11.0865 0.641946 12.4615 1.25095 13.6765L4.25795 11.3445C4.07266 10.7934 3.97744 10.216 3.97595 9.63453Z" fill="#FBBC05"/>
<path fill-rule="evenodd" clip-rule="evenodd" d="M12.734 5.55952L15.316 2.97952C13.757 1.52552 11.72 0.634522 9.29398 0.634522C7.62545 0.633861 5.98961 1.0972 4.56926 1.97275C3.14892 2.8483 2.00002 4.10158 1.25098 5.59252L4.25798 7.92452C4.96598 5.79752 6.94998 4.21452 9.29398 4.21452C10.615 4.21452 11.802 4.66852 12.734 5.55952Z" fill="#EA4335"/>
</svg>
