<svg width="257" height="36" viewBox="0 0 257 36" fill="none" xmlns="http://www.w3.org/2000/svg">
<path d="M18.3194 0.25L25.1766 7.10725C25.6421 7.5727 25.8748 7.80543 25.9599 8.07459C26.0317 8.30141 26.0317 8.54484 25.9599 8.77166C25.8748 9.04082 25.6421 9.27354 25.1766 9.73899L19.6353 15.2804C19.1698 15.7458 18.9371 15.9785 18.6679 16.0637C18.4411 16.1354 18.1977 16.1354 17.9709 16.0637C17.7017 15.9785 17.469 15.7458 17.0035 15.2804L11.4621 9.73899C10.9967 9.27354 10.764 9.04082 10.6788 8.77165C10.6071 8.54484 10.6071 8.30141 10.6788 8.07459C10.764 7.80543 10.9967 7.5727 11.4621 7.10725L18.3194 0.25Z" fill="#2864FE"/>
<path d="M26.9104 11.1839C27.3759 10.7184 27.6086 10.4857 27.8778 10.4006C28.1046 10.3288 28.348 10.3288 28.5749 10.4006C28.844 10.4857 29.0767 10.7184 29.5422 11.1839L36.3994 18.0411L29.5422 24.8984C29.0767 25.3638 28.844 25.5965 28.5749 25.6817C28.348 25.7534 28.1046 25.7534 27.8778 25.6817C27.6086 25.5965 27.3759 25.3638 26.9104 24.8984L21.3691 19.357C20.9036 18.8915 20.6709 18.6588 20.5858 18.3896C20.514 18.1628 20.514 17.9194 20.5858 17.6926C20.6709 17.4234 20.9036 17.1907 21.3691 16.7252L26.9104 11.1839Z" fill="#2864FE"/>
<path d="M6.97197 11.1839C7.43742 10.7184 7.67015 10.4857 7.93931 10.4006C8.16613 10.3288 8.40956 10.3288 8.63638 10.4006C8.90554 10.4857 9.13826 10.7184 9.60371 11.1839L15.1451 16.7252C15.6105 17.1907 15.8433 17.4234 15.9284 17.6926C16.0001 17.9194 16.0001 18.1628 15.9284 18.3896C15.8433 18.6588 15.6105 18.8915 15.1451 19.357L9.60371 24.8984C9.13826 25.3638 8.90554 25.5965 8.63637 25.6817C8.40956 25.7534 8.16613 25.7534 7.93931 25.6817C7.67015 25.5965 7.43742 25.3638 6.97197 24.8984L0.11472 18.0411L6.97197 11.1839Z" fill="#2864FE"/>
<path d="M17.0035 20.7196C17.469 20.2542 17.7017 20.0214 17.9709 19.9363C18.1977 19.8646 18.4411 19.8646 18.6679 19.9363C18.9371 20.0214 19.1698 20.2542 19.6353 20.7196L25.1766 26.261C25.6421 26.7264 25.8748 26.9592 25.9599 27.2283C26.0317 27.4552 26.0317 27.6986 25.9599 27.9254C25.8748 28.1946 25.6421 28.4273 25.1766 28.8927L18.3194 35.75L11.4621 28.8927C10.9967 28.4273 10.764 28.1946 10.6788 27.9254C10.6071 27.6986 10.6071 27.4552 10.6788 27.2283C10.764 26.9592 10.9967 26.7264 11.4621 26.261L17.0035 20.7196Z" fill="#2864FE"/>
<path d="M52.0053 24.1521H55.9655C57.3799 24.1521 58.0871 23.4732 58.0871 22.1154V20.3616C58.0871 19.0038 57.3422 18.3249 55.8524 18.3249H52.0053C51.7978 18.3249 51.6941 18.4192 51.6941 18.6078V23.8693C51.6941 24.0578 51.7978 24.1521 52.0053 24.1521ZM52.0053 16.0619H55.6827C57.1159 16.0619 57.8325 15.3736 57.8325 13.9969V12.6957C57.8325 11.3379 57.1348 10.659 55.7392 10.659H52.0053C51.7978 10.659 51.6941 10.7533 51.6941 10.9419V15.779C51.6941 15.9676 51.7978 16.0619 52.0053 16.0619ZM48.9502 26.0191V8.79203C48.9502 8.47144 49.1105 8.31115 49.4311 8.31115H56.1353C57.5308 8.31115 58.6151 8.68831 59.3883 9.44264C60.1615 10.197 60.5481 11.2625 60.5481 12.6391V14.0252C60.5481 15.6659 59.7749 16.722 58.2285 17.1934C58.964 17.2877 59.5675 17.6083 60.0389 18.1552C60.5293 18.7021 60.7744 19.4376 60.7744 20.3616V22.172C60.7744 23.5487 60.3878 24.6142 59.6146 25.3685C58.8414 26.1228 57.7665 26.5 56.3899 26.5H49.4311C49.1105 26.5 48.9502 26.3397 48.9502 26.0191ZM69.4801 26.5H68.3769C66.9814 26.5 65.897 26.1134 65.1238 25.3402C64.3695 24.567 63.9923 23.4921 63.9923 22.1154V16.4579C63.9923 15.0624 64.3695 13.9875 65.1238 13.2332C65.897 12.46 66.9814 12.0734 68.3769 12.0734H74.7133C75.0527 12.0734 75.2225 12.2337 75.2225 12.5543V26.0191C75.2225 26.3397 75.0527 26.5 74.7133 26.5H72.9312C72.6106 26.5 72.4503 26.3397 72.4503 26.0191V25.0008H72.3371C71.8845 26.0003 70.9322 26.5 69.4801 26.5ZM72.4503 21.6911V14.7607C72.4503 14.5721 72.3466 14.4778 72.1391 14.4778H68.7729C67.4151 14.4778 66.7362 15.1756 66.7362 16.5711V22.0023C66.7362 23.3978 67.4151 24.0956 68.7729 24.0956H70.1307C71.6771 24.0956 72.4503 23.2941 72.4503 21.6911ZM83.8988 26.5H78.6939C78.3733 26.5 78.213 26.3397 78.213 26.0191V24.633C78.213 24.3313 78.3733 24.1804 78.6939 24.1804H83.4462C84.672 24.1804 85.2849 23.7561 85.2849 22.9075V22.568C85.2849 21.8137 84.8417 21.2385 83.9553 20.8425L80.872 19.3716C79.9102 18.919 79.2125 18.4192 78.7787 17.8723C78.345 17.3254 78.1281 16.6088 78.1281 15.7225C78.1281 13.2897 79.4765 12.0734 82.1732 12.0734H86.869C87.1707 12.0734 87.3216 12.2337 87.3216 12.5543V13.9404C87.3216 14.2609 87.1707 14.4212 86.869 14.4212H82.739C82.1732 14.4212 81.7395 14.525 81.4378 14.7324C81.136 14.921 80.9852 15.1756 80.9852 15.4962V15.8073C80.9852 16.4108 81.466 16.9388 82.4278 17.3914L85.5394 18.9755C86.5201 19.4093 87.1895 19.9279 87.5479 20.5313C87.925 21.1159 88.1136 21.8797 88.1136 22.8226C88.1136 25.2742 86.7087 26.5 83.8988 26.5ZM101.255 26.5H95.145C93.7495 26.5 92.6652 26.1134 91.892 25.3402C91.1376 24.567 90.7605 23.4921 90.7605 22.1154V16.4579C90.7605 15.0624 91.1376 13.9875 91.892 13.2332C92.6652 12.46 93.7495 12.0734 95.145 12.0734H97.4646C98.8601 12.0734 99.9445 12.46 100.718 13.2332C101.491 13.9875 101.877 15.0624 101.877 16.4579V20.0505C101.877 20.3899 101.708 20.5596 101.368 20.5596H93.7872C93.5798 20.5596 93.4761 20.6539 93.4761 20.8425V22.0589C93.4761 23.4355 94.1644 24.1239 95.5411 24.1239H101.255C101.595 24.1239 101.764 24.2936 101.764 24.633V26.0474C101.764 26.3491 101.595 26.5 101.255 26.5ZM93.7872 18.6361H98.8507C99.0393 18.6361 99.1336 18.5418 99.1336 18.3532V16.5428C99.1336 15.8262 98.9733 15.3076 98.6527 14.987C98.3321 14.6475 97.8135 14.4778 97.0969 14.4778H95.5411C94.8244 14.4778 94.3058 14.6475 93.9852 14.987C93.6647 15.3076 93.5044 15.8262 93.5044 16.5428V18.3532C93.5044 18.5418 93.5986 18.6361 93.7872 18.6361ZM119.4 26.5H116.119C114.723 26.5 113.639 26.1134 112.866 25.3402C112.111 24.567 111.734 23.4921 111.734 22.1154V12.6957C111.734 11.3002 112.111 10.2253 112.866 9.47093C113.639 8.69774 114.723 8.31115 116.119 8.31115H119.4C120.777 8.31115 121.852 8.69774 122.625 9.47093C123.398 10.2253 123.785 11.3002 123.785 12.6957V14.0535C123.785 14.393 123.615 14.5627 123.275 14.5627H121.493C121.173 14.5627 121.012 14.393 121.012 14.0535V12.8089C121.012 11.4133 120.333 10.7156 118.976 10.7156H116.515C115.157 10.7156 114.478 11.4133 114.478 12.8089V22.0023C114.478 23.3978 115.157 24.0956 116.515 24.0956H118.976C120.333 24.0956 121.012 23.3978 121.012 22.0023V20.7576C121.012 20.4182 121.173 20.2485 121.493 20.2485H123.275C123.615 20.2485 123.785 20.4182 123.785 20.7576V22.1154C123.785 23.4921 123.398 24.567 122.625 25.3402C121.852 26.1134 120.777 26.5 119.4 26.5ZM133.601 26.5H131.112C129.717 26.5 128.632 26.1134 127.859 25.3402C127.105 24.567 126.728 23.4921 126.728 22.1154V16.4579C126.728 15.0624 127.105 13.9875 127.859 13.2332C128.632 12.46 129.717 12.0734 131.112 12.0734H133.601C134.978 12.0734 136.053 12.46 136.826 13.2332C137.618 13.9875 138.014 15.0624 138.014 16.4579V22.1154C138.014 23.4921 137.618 24.567 136.826 25.3402C136.053 26.1134 134.978 26.5 133.601 26.5ZM131.508 24.0956H133.234C134.591 24.0956 135.27 23.4072 135.27 22.0306V16.5428C135.27 15.1661 134.591 14.4778 133.234 14.4778H131.508C130.792 14.4778 130.273 14.6475 129.952 14.987C129.632 15.3076 129.471 15.8262 129.471 16.5428V22.0306C129.471 22.7472 129.632 23.2752 129.952 23.6147C130.273 23.9353 130.792 24.0956 131.508 24.0956ZM143.528 26.5H141.746C141.425 26.5 141.265 26.3397 141.265 26.0191V12.5543C141.265 12.2337 141.425 12.0734 141.746 12.0734H143.528C143.848 12.0734 144.009 12.2337 144.009 12.5543V13.5726H144.122C144.669 12.5731 145.668 12.0734 147.12 12.0734H148.054C149.694 12.0734 150.864 12.6957 151.561 13.9404C151.863 13.3369 152.325 12.8749 152.947 12.5543C153.57 12.2337 154.239 12.0734 154.956 12.0734H155.861C157.238 12.0734 158.284 12.46 159.001 13.2332C159.736 13.9875 160.104 15.0624 160.104 16.4579V26.0191C160.104 26.3397 159.944 26.5 159.623 26.5H157.813C157.492 26.5 157.332 26.3397 157.332 26.0191V16.5711C157.332 15.1756 156.653 14.4778 155.295 14.4778H154.475C152.91 14.4778 152.127 15.2982 152.127 16.9388V26.0191C152.127 26.3397 151.957 26.5 151.618 26.5H149.836C149.515 26.5 149.355 26.3397 149.355 26.0191V16.5711C149.355 15.1756 148.676 14.4778 147.318 14.4778H146.328C144.782 14.4778 144.009 15.2793 144.009 16.8823V26.0191C144.009 26.3397 143.848 26.5 143.528 26.5ZM165.793 30.4885H164.011C163.69 30.4885 163.53 30.3282 163.53 30.0076V12.5543C163.53 12.2337 163.69 12.0734 164.011 12.0734H165.793C166.114 12.0734 166.274 12.2337 166.274 12.5543V13.5726H166.387C166.84 12.5731 167.792 12.0734 169.244 12.0734H170.687C172.045 12.0734 173.082 12.4505 173.798 13.2049C174.534 13.9592 174.902 15.0436 174.902 16.4579V22.1154C174.902 23.511 174.534 24.5953 173.798 25.3685C173.082 26.1228 172.045 26.5 170.687 26.5H169.244C167.792 26.5 166.84 26.0003 166.387 25.0008H166.274V30.0076C166.274 30.3282 166.114 30.4885 165.793 30.4885ZM168.593 24.0956H170.093C171.451 24.0956 172.129 23.3978 172.129 22.0023V16.5711C172.129 15.1756 171.451 14.4778 170.093 14.4778H168.593C167.047 14.4778 166.274 15.2793 166.274 16.8823V21.6911C166.274 23.2941 167.047 24.0956 168.593 24.0956ZM184.762 26.5H182.273C180.877 26.5 179.793 26.1134 179.02 25.3402C178.265 24.567 177.888 23.4921 177.888 22.1154V16.4579C177.888 15.0624 178.265 13.9875 179.02 13.2332C179.793 12.46 180.877 12.0734 182.273 12.0734H184.762C186.139 12.0734 187.214 12.46 187.987 13.2332C188.779 13.9875 189.175 15.0624 189.175 16.4579V22.1154C189.175 23.4921 188.779 24.567 187.987 25.3402C187.214 26.1134 186.139 26.5 184.762 26.5ZM182.669 24.0956H184.394C185.752 24.0956 186.431 23.4072 186.431 22.0306V16.5428C186.431 15.1661 185.752 14.4778 184.394 14.4778H182.669C181.952 14.4778 181.434 14.6475 181.113 14.987C180.792 15.3076 180.632 15.8262 180.632 16.5428V22.0306C180.632 22.7472 180.792 23.2752 181.113 23.6147C181.434 23.9353 181.952 24.0956 182.669 24.0956ZM194.688 26.5H192.906C192.586 26.5 192.425 26.3397 192.425 26.0191V12.5543C192.425 12.2337 192.586 12.0734 192.906 12.0734H194.688C195.009 12.0734 195.169 12.2337 195.169 12.5543V13.5726H195.282C195.735 12.5731 196.687 12.0734 198.139 12.0734H199.384C200.761 12.0734 201.817 12.4505 202.552 13.2049C203.288 13.9592 203.655 15.0436 203.655 16.4579V26.0191C203.655 26.3397 203.486 26.5 203.146 26.5H201.364C201.044 26.5 200.883 26.3397 200.883 26.0191V16.5711C200.883 15.1756 200.195 14.4778 198.818 14.4778H197.489C195.942 14.4778 195.169 15.2793 195.169 16.8823V26.0191C195.169 26.3397 195.009 26.5 194.688 26.5ZM217.25 26.5H211.14C209.745 26.5 208.66 26.1134 207.887 25.3402C207.133 24.567 206.756 23.4921 206.756 22.1154V16.4579C206.756 15.0624 207.133 13.9875 207.887 13.2332C208.66 12.46 209.745 12.0734 211.14 12.0734H213.46C214.855 12.0734 215.94 12.46 216.713 13.2332C217.486 13.9875 217.873 15.0624 217.873 16.4579V20.0505C217.873 20.3899 217.703 20.5596 217.364 20.5596H209.783C209.575 20.5596 209.471 20.6539 209.471 20.8425V22.0589C209.471 23.4355 210.16 24.1239 211.536 24.1239H217.25C217.59 24.1239 217.76 24.2936 217.76 24.633V26.0474C217.76 26.3491 217.59 26.5 217.25 26.5ZM209.783 18.6361H214.846C215.035 18.6361 215.129 18.5418 215.129 18.3532V16.5428C215.129 15.8262 214.969 15.3076 214.648 14.987C214.327 14.6475 213.809 14.4778 213.092 14.4778H211.536C210.82 14.4778 210.301 14.6475 209.981 14.987C209.66 15.3076 209.5 15.8262 209.5 16.5428V18.3532C209.5 18.5418 209.594 18.6361 209.783 18.6361ZM223.252 26.5H221.47C221.149 26.5 220.989 26.3397 220.989 26.0191V12.5543C220.989 12.2337 221.149 12.0734 221.47 12.0734H223.252C223.573 12.0734 223.733 12.2337 223.733 12.5543V13.5726H223.846C224.299 12.5731 225.251 12.0734 226.703 12.0734H227.948C229.324 12.0734 230.38 12.4505 231.116 13.2049C231.851 13.9592 232.219 15.0436 232.219 16.4579V26.0191C232.219 26.3397 232.049 26.5 231.71 26.5H229.928C229.607 26.5 229.447 26.3397 229.447 26.0191V16.5711C229.447 15.1756 228.759 14.4778 227.382 14.4778H226.052C224.506 14.4778 223.733 15.2793 223.733 16.8823V26.0191C223.733 26.3397 223.573 26.5 223.252 26.5ZM236.027 14.4778H234.669C234.48 14.4778 234.348 14.4495 234.273 14.393C234.216 14.3175 234.188 14.1949 234.188 14.0252V12.5543C234.188 12.2337 234.348 12.0734 234.669 12.0734H236.027C236.215 12.0734 236.31 11.9791 236.31 11.7905V9.24463C236.31 8.92404 236.479 8.76374 236.819 8.76374H238.601C238.921 8.76374 239.082 8.92404 239.082 9.24463V11.7905C239.082 11.9791 239.185 12.0734 239.393 12.0734H242.024C242.363 12.0734 242.533 12.2337 242.533 12.5543V14.0252C242.533 14.327 242.363 14.4778 242.024 14.4778H239.393C239.185 14.4778 239.082 14.5721 239.082 14.7607V22.0306C239.082 23.4072 239.789 24.0956 241.203 24.0956H242.306C242.646 24.0956 242.816 24.2559 242.816 24.5765V26.0474C242.816 26.3491 242.646 26.5 242.306 26.5H240.779C239.383 26.5 238.29 26.1228 237.498 25.3685C236.706 24.6142 236.31 23.5487 236.31 22.172V14.7607C236.31 14.5721 236.215 14.4778 236.027 14.4778ZM250.668 26.5H245.463C245.142 26.5 244.982 26.3397 244.982 26.0191V24.633C244.982 24.3313 245.142 24.1804 245.463 24.1804H250.215C251.441 24.1804 252.054 23.7561 252.054 22.9075V22.568C252.054 21.8137 251.611 21.2385 250.724 20.8425L247.641 19.3716C246.679 18.919 245.982 18.4192 245.548 17.8723C245.114 17.3254 244.897 16.6088 244.897 15.7225C244.897 13.2897 246.246 12.0734 248.942 12.0734H253.638C253.94 12.0734 254.091 12.2337 254.091 12.5543V13.9404C254.091 14.2609 253.94 14.4212 253.638 14.4212H249.508C248.942 14.4212 248.509 14.525 248.207 14.7324C247.905 14.921 247.754 15.1756 247.754 15.4962V15.8073C247.754 16.4108 248.235 16.9388 249.197 17.3914L252.309 18.9755C253.289 19.4093 253.959 19.9279 254.317 20.5313C254.694 21.1159 254.883 21.8797 254.883 22.8226C254.883 25.2742 253.478 26.5 250.668 26.5Z" fill="white"/>
</svg>
